<?xml version="1.0" encoding="UTF-8" standalone="no"?>
<svg
   xmlns:dc="http://purl.org/dc/elements/1.1/"
   xmlns:cc="http://creativecommons.org/ns#"
   xmlns:rdf="http://www.w3.org/1999/02/22-rdf-syntax-ns#"
   xmlns:svg="http://www.w3.org/2000/svg"
   xmlns="http://www.w3.org/2000/svg"
   xmlns:xlink="http://www.w3.org/1999/xlink"
   xmlns:sodipodi="http://sodipodi.sourceforge.net/DTD/sodipodi-0.dtd"
   xmlns:inkscape="http://www.inkscape.org/namespaces/inkscape"
   id="svgROOT"
   height="100%"
   width="100%"
   viewBox="0 0 800 600"
   version="1.1"
   style="display: block;"
   sodipodi:docname="vannes.svg"
   inkscape:version="0.92.3 (2405546, 2018-03-11)">
  <metadata
     id="metadata95">
    <rdf:RDF>
      <cc:Work
         rdf:about="">
        <dc:format>image/svg+xml</dc:format>
        <dc:type
           rdf:resource="http://purl.org/dc/dcmitype/StillImage" />
        <dc:title />
      </cc:Work>
    </rdf:RDF>
  </metadata>
  <sodipodi:namedview
     pagecolor="#ffffff"
     bordercolor="#666666"
     borderopacity="1"
     objecttolerance="10"
     gridtolerance="10"
     guidetolerance="10"
     inkscape:pageopacity="0"
     inkscape:pageshadow="2"
     inkscape:window-width="2560"
     inkscape:window-height="1387"
     id="namedview93"
     showgrid="false"
     inkscape:zoom="1.42"
     inkscape:cx="-3.0853337"
     inkscape:cy="304.09118"
     inkscape:window-x="1912"
     inkscape:window-y="-8"
     inkscape:window-maximized="1"
     inkscape:current-layer="svgROOT" />
  <defs
     id="defs2987">
    <linearGradient
       id="linearGradient3771">
      <stop
         id="stop3773"
         stop-color="#bdeefd"
         offset="0" />
      <stop
         id="stop3775"
         stop-color="#1e7cd6"
         offset="1" />
    </linearGradient>
    <linearGradient
       id="linearGradient3777"
       y2="300.21609"
       xlink:href="#linearGradient4227"
       gradientUnits="userSpaceOnUse"
       x2="800.05182"
       y1="300.21609"
       x1="0.29462782" />
    <linearGradient
       id="linearGradient4137"
       y2="337.08334"
       xlink:href="#linearGradient3771"
       gradientUnits="userSpaceOnUse"
       x2="507.06943"
       y1="337.08334"
       x1="447.51389"
       gradientTransform="matrix(0.69776118,0,0,0.69776118,136.10117,318.87665)" />
    <linearGradient
       id="linearGradient4227"
       y2="337.08334"
       gradientUnits="userSpaceOnUse"
       y1="337.08334"
       x2="507.06943"
       x1="447.51389"
       gradientTransform="matrix(0.69776118,0,0,0.69776118,277.03868,318.94156)">
      <stop
         id="stop3773-2"
         stop-color="#bdeefd"
         offset="0" />
      <stop
         id="stop3775-4"
         stop-color="#1e7cd6"
         offset="1" />
    </linearGradient>
    <linearGradient
       id="linearGradient4399"
       y2="505.71912"
       gradientUnits="userSpaceOnUse"
       x2="316.50488"
       gradientTransform="matrix(1.2229961,0,0,1.0384615,-21.086483,-41.773622)"
       y1="463.88196"
       x1="316.72495">
      <stop
         id="stop4395"
         stop-color="#c1d3f4"
         offset="0" />
      <stop
         id="stop4403"
         stop-color="#486fbf"
         offset="0.30596605" />
      <stop
         id="stop4405"
         stop-color="#486fbf"
         stop-opacity="0.74901962"
         offset="0.66658556" />
      <stop
         id="stop4401"
         stop-color="#c1d3f4"
         offset="1" />
    </linearGradient>
    <filter
       id="filter4407"
       color-interpolation-filters="sRGB">
      <feGaussianBlur
         id="feGaussianBlur4409"
         stdDeviation="4"
         result="result8" />
      <feOffset
         id="feOffset4411"
         result="result11"
         dx="4"
         dy="4" />
      <feComposite
         id="feComposite4413"
         operator="in"
         in="SourceGraphic"
         in2="result11"
         result="result6" />
      <feFlood
         id="feFlood4415"
         flood-color="rgb(0,0,0)"
         in="result6"
         flood-opacity="1"
         result="result10" />
      <feBlend
         id="feBlend4417"
         result="result12"
         in="result6"
         in2="result10"
         mode="normal" />
      <feComposite
         id="feComposite4419"
         operator="in"
         in2="SourceGraphic"
         result="result2" />
    </filter>
  </defs>
  <rect
     style="fill:url(#linearGradient3777);fill-opacity:1.0"
     x="0.29462782"
     y="0.43237433"
     width="799.7572"
     height="599.56744"
     id="rectBackground" />
  <text
     line-height="125%"
     x="42.348625"
     y="71.72036"
     font-variant="normal"
     font-size="64px"
     font-stretch="normal"
     font-style="normal"
     transform="scale(0.99878728,1.0012142)"
     xml:space="preserve"
     font-weight="normal"
     style="font-style:normal;font-variant:normal;font-weight:normal;font-stretch:normal;font-size:64px;line-height:125%;font-family:Arial;text-align:start;letter-spacing:0px;word-spacing:0px;writing-mode:lr-tb;text-anchor:start;fill:#ffffff"
     id="textHeadline"><tspan
       y="71.72036"
       x="42.348625"
       id="tspan4442"
       style="font-size:48px">118 Au feu ! Vannes</tspan></text>
  <ellipse
     r="19.918501"
     cy="199.26466"
     cx="-79.549515"
     id="ellipse891"
     style="fill:#06f627;fill-opacity:1;stroke:#000000;stroke-width:1;stroke-miterlimit:4;stroke-dasharray:none;stroke-opacity:1" />
  <ellipse
     r="19.918501"
     cy="199.26466"
     cx="-79.549515"
     id="ellipse893"
     style="fill:#06f627;fill-opacity:1;stroke:#000000;stroke-width:1;stroke-miterlimit:4;stroke-dasharray:none;stroke-opacity:1" />
  <path
     id="path22"
     style="fill:none;stroke:#231f20;stroke-width:2.25199413;stroke-linecap:butt;stroke-linejoin:miter;stroke-miterlimit:10;stroke-dasharray:none;stroke-opacity:1"
     d="M 700.14595,153.12642 H 517.73443 c 0,0 -20.26795,0 -20.26795,20.26795 v 121.60768 c 0,0 0,20.26795 -20.26795,20.26795 H 355.59085 c 0,0 -20.26794,0 -20.26794,-20.26795 v -40.5359 c 0,0 0,-20.26794 -20.26795,-20.26794 H 193.44728 c 0,0 -20.26795,0 -20.26795,20.26794 v 202.67947"
     inkscape:connector-curvature="0"
     sodipodi:nodetypes="ccscscscscsc" />
  <g
     id="g24"
     transform="matrix(2.2519941,0,0,-2.2519941,416.39469,315.27)">
    <path
       inkscape:connector-curvature="0"
       d="m 0,0 v -63 c 0,0 0,-9 9,-9 h 54 c 0,0 9,0 9,9 v 36 c 0,0 0,9 9,9 h 27"
       style="fill:none;stroke:#231f20;stroke-width:1;stroke-linecap:butt;stroke-linejoin:miter;stroke-miterlimit:10;stroke-dasharray:none;stroke-opacity:1"
       id="path26" />
  </g>
  <g
     id="g28"
     transform="matrix(2.2519941,0,0,-2.2519941,578.53827,416.60973)">
    <path
       inkscape:connector-curvature="0"
       d="M 0,0 H -36"
       style="fill:none;stroke:#231f20;stroke-width:1;stroke-linecap:butt;stroke-linejoin:miter;stroke-miterlimit:10;stroke-dasharray:none;stroke-opacity:1"
       id="path30" />
  </g>
  <g
     id="g32"
     transform="matrix(2.2519941,0,0,-2.2519941,578.53827,153.12642)">
    <path
       inkscape:connector-curvature="0"
       d="M 0,0 V -54"
       style="fill:none;stroke:#231f20;stroke-width:1;stroke-linecap:butt;stroke-linejoin:miter;stroke-miterlimit:10;stroke-dasharray:none;stroke-opacity:1"
       id="path34" />
  </g>
  <g
     id="g36"
     transform="matrix(2.2519941,0,0,-2.2519941,213.71524,234.19821)">
    <path
       inkscape:connector-curvature="0"
       d="m 0,0 v 27 c 0,0 0,9 -9,9 h -45"
       style="fill:none;stroke:#231f20;stroke-width:1;stroke-linecap:butt;stroke-linejoin:miter;stroke-miterlimit:10;stroke-dasharray:none;stroke-opacity:1"
       id="path38" />
  </g>
  <g
     id="g40"
     transform="matrix(2.2519941,0,0,-2.2519941,254.25113,234.19821)">
    <path
       inkscape:connector-curvature="0"
       d="m 0,0 v -90 c 0,0 0,-9 9,-9 h 27"
       style="fill:none;stroke:#231f20;stroke-width:1;stroke-linecap:butt;stroke-linejoin:miter;stroke-miterlimit:10;stroke-dasharray:none;stroke-opacity:1"
       id="path42" />
  </g>
  <g
     id="g44"
     transform="matrix(2.2519941,0,0,-2.2519941,254.25113,376.07384)">
    <path
       inkscape:connector-curvature="0"
       d="M 0,0 H 18"
       style="fill:none;stroke:#231f20;stroke-width:1;stroke-linecap:butt;stroke-linejoin:miter;stroke-miterlimit:10;stroke-dasharray:none;stroke-opacity:1"
       id="path46" />
  </g>
  <g
     id="g48"
     transform="matrix(2.2519941,0,0,-2.2519941,375.8588,315.27)">
    <path
       inkscape:connector-curvature="0"
       d="M 0,0 V 54"
       style="fill:none;stroke:#231f20;stroke-width:1;stroke-linecap:butt;stroke-linejoin:miter;stroke-miterlimit:10;stroke-dasharray:none;stroke-opacity:1"
       id="path50" />
  </g>
  <g
     id="g112"
     transform="matrix(2.2519941,0,0,-2.2519941,173.17935,295.00205)">
    <path
       inkscape:connector-curvature="0"
       d="M 0,0 H -27"
       style="fill:none;stroke:#231f20;stroke-width:1;stroke-linecap:butt;stroke-linejoin:miter;stroke-miterlimit:10;stroke-dasharray:none;stroke-opacity:1"
       id="path114" />
  </g>
  <path
     style="fill:#ff919a;fill-opacity:1;stroke:#000000;stroke-width:0.64913511;stroke-miterlimit:4;stroke-dasharray:none;stroke-opacity:1"
     d="m 674.00681,138.18684 15.15086,15.15086 -15.15086,15.15085 10.1013,10.1013 15.15088,-15.15084 15.15308,15.15308 10.10129,-10.10129 -15.15308,-15.1531 15.15308,-15.15308 -10.1013,-10.10131 -15.15309,15.15309 -15.15087,-15.15085 z"
     id="ClosedV1"
     inkscape:connector-curvature="0"
     inkscape:label="" />
  <path
     style="fill:#06f627;fill-opacity:1;stroke:#000000;stroke-width:0.78657722;stroke-miterlimit:4;stroke-dasharray:none;stroke-opacity:1"
     d="m 699.26009,127.78161 a 25.556479,25.556479 0 0 0 -25.5561,25.55609 25.556479,25.556479 0 0 0 25.5561,25.55608 25.556479,25.556479 0 0 0 25.55609,-25.55608 25.556479,25.556479 0 0 0 -25.55609,-25.55609 z m 0,8.35739 a 17.198162,17.198162 0 0 1 17.19871,17.1987 17.198162,17.198162 0 0 1 -17.19871,17.19869 17.198162,17.198162 0 0 1 -17.1987,-17.19869 17.198162,17.198162 0 0 1 17.1987,-17.1987 z"
     id="OpenedV1"
     inkscape:connector-curvature="0"
     inkscape:label="" />
  <path
     style="display:block;fill:#ff919a;fill-opacity:1;stroke:#000000;stroke-width:0.64913511;stroke-miterlimit:4;stroke-dasharray:none;stroke-opacity:1"
     d="m 634.0491,340.84751 15.15086,15.15086 -15.15086,15.15085 10.1013,10.1013 15.15088,-15.15084 15.15308,15.15308 10.10129,-10.10129 -15.15308,-15.1531 15.15308,-15.15308 -10.1013,-10.10131 -15.15309,15.15309 -15.15087,-15.15085 z"
     id="ClosedV2"
     inkscape:connector-curvature="0"
     inkscape:label="" />
  <path
     style="display:block;fill:#06f627;fill-opacity:1;stroke:#000000;stroke-width:0.78657722;stroke-miterlimit:4;stroke-dasharray:none;stroke-opacity:1"
     d="m 659.30238,330.44228 a 25.556479,25.556479 0 0 0 -25.5561,25.55609 25.556479,25.556479 0 0 0 25.5561,25.55608 25.556479,25.556479 0 0 0 25.55609,-25.55608 25.556479,25.556479 0 0 0 -25.55609,-25.55609 z m 0,8.35739 a 17.198162,17.198162 0 0 1 17.19871,17.1987 17.198162,17.198162 0 0 1 -17.19871,17.19869 17.198162,17.198162 0 0 1 -17.1987,-17.19869 17.198162,17.198162 0 0 1 17.1987,-17.1987 z"
     id="OpenedV2"
     inkscape:connector-curvature="0"
     inkscape:label="" />
  <path
     style="display:block;fill:#ff919a;fill-opacity:1;stroke:#000000;stroke-width:0.64913511;stroke-miterlimit:4;stroke-dasharray:none;stroke-opacity:1"
     d="m 553.87714,258.68369 15.15086,15.15086 -15.15086,15.15085 10.1013,10.1013 15.15088,-15.15084 15.15308,15.15308 10.10129,-10.10129 -15.15308,-15.1531 15.15308,-15.15308 -10.1013,-10.10131 -15.15309,15.15309 -15.15087,-15.15085 z"
     id="ClosedV3"
     inkscape:connector-curvature="0"
     inkscape:label="" />
  <path
     style="display:block;fill:#06f627;fill-opacity:1;stroke:#000000;stroke-width:0.78657722;stroke-miterlimit:4;stroke-dasharray:none;stroke-opacity:1"
     d="m 579.13042,248.27846 a 25.556479,25.556479 0 0 0 -25.5561,25.55609 25.556479,25.556479 0 0 0 25.5561,25.55608 25.556479,25.556479 0 0 0 25.55609,-25.55608 25.556479,25.556479 0 0 0 -25.55609,-25.55609 z m 0,8.35739 a 17.198162,17.198162 0 0 1 17.19871,17.1987 17.198162,17.198162 0 0 1 -17.19871,17.19869 17.198162,17.198162 0 0 1 -17.1987,-17.19869 17.198162,17.198162 0 0 1 17.1987,-17.1987 z"
     id="OpenedV3"
     inkscape:connector-curvature="0"
     inkscape:label="" />
  <path
     style="display:block;fill:#ff919a;fill-opacity:1;stroke:#000000;stroke-width:0.64913511;stroke-miterlimit:4;stroke-dasharray:none;stroke-opacity:1"
     d="m 473.70517,401.59894 15.15086,15.15086 -15.15086,15.15085 10.1013,10.1013 15.15088,-15.15084 15.15308,15.15308 10.10129,-10.10129 -15.15308,-15.1531 15.15308,-15.15308 -10.1013,-10.10131 -15.15309,15.15309 -15.15087,-15.15085 z"
     id="ClosedV4"
     inkscape:connector-curvature="0"
     inkscape:label="" />
  <path
     style="display:block;fill:#06f627;fill-opacity:1;stroke:#000000;stroke-width:0.78657722;stroke-miterlimit:4;stroke-dasharray:none;stroke-opacity:1"
     d="m 498.95845,391.19371 a 25.556479,25.556479 0 0 0 -25.5561,25.55609 25.556479,25.556479 0 0 0 25.5561,25.55608 25.556479,25.556479 0 0 0 25.55609,-25.55608 25.556479,25.556479 0 0 0 -25.55609,-25.55609 z m 0,8.35739 a 17.198162,17.198162 0 0 1 17.19871,17.1987 17.198162,17.198162 0 0 1 -17.19871,17.19869 17.198162,17.198162 0 0 1 -17.1987,-17.19869 17.198162,17.198162 0 0 1 17.1987,-17.1987 z"
     id="OpenedV4"
     inkscape:connector-curvature="0"
     inkscape:label="" />
  <path
     style="display:block;fill:#ff919a;fill-opacity:1;stroke:#000000;stroke-width:0.64913511;stroke-miterlimit:4;stroke-dasharray:none;stroke-opacity:1"
     d="m 350.70843,179.00969 15.15086,15.15086 -15.15086,15.15085 10.1013,10.1013 15.15088,-15.15084 15.15308,15.15308 10.10129,-10.10129 -15.15308,-15.1531 15.15308,-15.15308 -10.1013,-10.10131 -15.15309,15.15309 -15.15087,-15.15085 z"
     id="ClosedV5"
     inkscape:connector-curvature="0"
     inkscape:label="" />
  <path
     style="display:block;fill:#06f627;fill-opacity:1;stroke:#000000;stroke-width:0.78657722;stroke-miterlimit:4;stroke-dasharray:none;stroke-opacity:1"
     d="m 375.96171,168.60446 a 25.556479,25.556479 0 0 0 -25.5561,25.55609 25.556479,25.556479 0 0 0 25.5561,25.55608 25.556479,25.556479 0 0 0 25.55609,-25.55608 25.556479,25.556479 0 0 0 -25.55609,-25.55609 z m 0,8.35739 a 17.198162,17.198162 0 0 1 17.19871,17.1987 17.198162,17.198162 0 0 1 -17.19871,17.19869 17.198162,17.198162 0 0 1 -17.1987,-17.19869 17.198162,17.198162 0 0 1 17.1987,-17.1987 z"
     id="OpenedV5"
     inkscape:connector-curvature="0"
     inkscape:label="" />
  <path
     style="display:block;fill:#ff919a;fill-opacity:1;stroke:#000000;stroke-width:0.64913511;stroke-miterlimit:4;stroke-dasharray:none;stroke-opacity:1"
     d="m 310.37346,441.9339 15.15087,15.15086 -15.15087,15.15085 10.10131,10.1013 15.15088,-15.15084 15.15308,15.15308 10.10129,-10.10129 -15.15308,-15.1531 15.15308,-15.15308 -10.1013,-10.10131 -15.15309,15.15309 -15.15087,-15.15085 z"
     id="ClosedV6"
     inkscape:connector-curvature="0"
     inkscape:label="" />
  <path
     style="display:block;fill:#06f627;fill-opacity:1;stroke:#000000;stroke-width:0.78657722;stroke-miterlimit:4;stroke-dasharray:none;stroke-opacity:1"
     d="m 335.62675,431.52867 a 25.556479,25.556479 0 0 0 -25.55611,25.55609 25.556479,25.556479 0 0 0 25.55611,25.55608 25.556479,25.556479 0 0 0 25.55609,-25.55608 25.556479,25.556479 0 0 0 -25.55609,-25.55609 z m 0,8.35739 a 17.198162,17.198162 0 0 1 17.19871,17.1987 17.198162,17.198162 0 0 1 -17.19871,17.19869 17.198162,17.198162 0 0 1 -17.19871,-17.19869 17.198162,17.198162 0 0 1 17.19871,-17.1987 z"
     id="OpenedV6"
     inkscape:connector-curvature="0"
     inkscape:label="" />
  <path
     style="display:block;fill:#ff919a;fill-opacity:1;stroke:#000000;stroke-width:0.64913511;stroke-miterlimit:4;stroke-dasharray:none;stroke-opacity:1"
     d="m 269.54054,361.26397 15.15086,15.15086 -15.15086,15.15085 10.1013,10.1013 15.15088,-15.15084 15.15308,15.15308 10.10129,-10.10129 -15.15308,-15.1531 15.15308,-15.15308 -10.1013,-10.10131 -15.15309,15.15309 -15.15087,-15.15085 z"
     id="ClosedV7"
     inkscape:connector-curvature="0"
     inkscape:label="" />
  <path
     style="display:block;fill:#06f627;fill-opacity:1;stroke:#000000;stroke-width:0.78657722;stroke-miterlimit:4;stroke-dasharray:none;stroke-opacity:1"
     d="m 294.79382,350.85874 a 25.556479,25.556479 0 0 0 -25.5561,25.55609 25.556479,25.556479 0 0 0 25.5561,25.55608 25.556479,25.556479 0 0 0 25.55609,-25.55608 25.556479,25.556479 0 0 0 -25.55609,-25.55609 z m 0,8.35739 a 17.198162,17.198162 0 0 1 17.19871,17.1987 17.198162,17.198162 0 0 1 -17.19871,17.19869 17.198162,17.198162 0 0 1 -17.1987,-17.19869 17.198162,17.198162 0 0 1 17.1987,-17.1987 z"
     id="OpenedV7"
     inkscape:connector-curvature="0"
     inkscape:label="" />
  <path
     style="display:block;fill:#ff919a;fill-opacity:1;stroke:#000000;stroke-width:0.64913511;stroke-miterlimit:4;stroke-dasharray:none;stroke-opacity:1"
     d="m 88.28218,280.09608 15.15086,15.15086 -15.15086,15.15085 10.1013,10.1013 15.15088,-15.15084 15.15308,15.15308 10.10129,-10.10129 -15.15308,-15.1531 15.15308,-15.15308 -10.1013,-10.10131 -15.15309,15.15309 -15.15087,-15.15085 z"
     id="ClosedV8"
     inkscape:connector-curvature="0"
     inkscape:label="" />
  <path
     style="display:block;fill:#06f627;fill-opacity:1;stroke:#000000;stroke-width:0.78657722;stroke-miterlimit:4;stroke-dasharray:none;stroke-opacity:1"
     d="m 113.53546,269.69085 a 25.556479,25.556479 0 0 0 -25.5561,25.55609 25.556479,25.556479 0 0 0 25.5561,25.55608 25.556479,25.556479 0 0 0 25.55609,-25.55608 25.556479,25.556479 0 0 0 -25.55609,-25.55609 z m 0,8.35739 a 17.198162,17.198162 0 0 1 17.19871,17.1987 17.198162,17.198162 0 0 1 -17.19871,17.19869 17.198162,17.198162 0 0 1 -17.1987,-17.19869 17.198162,17.198162 0 0 1 17.1987,-17.1987 z"
     id="OpenedV8"
     inkscape:connector-curvature="0"
     inkscape:label="" />
  <path
     style="display:block;fill:#ff919a;fill-opacity:1;stroke:#000000;stroke-width:0.64913511;stroke-miterlimit:4;stroke-dasharray:none;stroke-opacity:1"
     d="m 67.367754,138.67473 15.15086,15.15086 -15.15086,15.15085 10.1013,10.1013 15.15088,-15.15084 15.153076,15.15308 10.10129,-10.10129 -15.15308,-15.1531 15.15308,-15.15308 -10.1013,-10.10131 -15.153086,15.15309 -15.15087,-15.15085 z"
     id="ClosedV9"
     inkscape:connector-curvature="0"
     inkscape:label="" />
  <path
     style="display:block;fill:#06f627;fill-opacity:1;stroke:#000000;stroke-width:0.78657722;stroke-miterlimit:4;stroke-dasharray:none;stroke-opacity:1"
     d="m 92.621034,128.2695 a 25.556479,25.556479 0 0 0 -25.5561,25.55609 25.556479,25.556479 0 0 0 25.5561,25.55608 25.556479,25.556479 0 0 0 25.556086,-25.55608 25.556479,25.556479 0 0 0 -25.556086,-25.55609 z m 0,8.35738 a 17.198162,17.198162 0 0 1 17.198706,17.19871 17.198162,17.198162 0 0 1 -17.198706,17.19869 17.198162,17.198162 0 0 1 -17.1987,-17.19869 17.198162,17.198162 0 0 1 17.1987,-17.19871 z"
     id="OpenedV9"
     inkscape:connector-curvature="0"
     inkscape:label="" />
  <path
     style="fill:#06f627;fill-opacity:1;fill-rule:evenodd;stroke:#000000;stroke-width:0.69135827px;stroke-linecap:butt;stroke-linejoin:miter;stroke-opacity:1"
     d="m 130.15269,166.94692 -7.4248,18.62286 -5.59903,-7.30308 -2.6778,3.16466 9.494,10.22432 12.65868,-24.58704 z"
     id="RightV9"
     inkscape:connector-curvature="0"
     sodipodi:nodetypes="ccccccc"
     inkscape:label="" />
  <path
     style="display:block;fill:#06f627;fill-opacity:1;fill-rule:evenodd;stroke:#000000;stroke-width:0.69135827px;stroke-linecap:butt;stroke-linejoin:miter;stroke-opacity:1"
     d="m 149.98058,309.16155 -7.4248,18.62286 -5.59903,-7.30308 -2.6778,3.16466 9.494,10.22432 12.65868,-24.58704 z"
     id="RightV8"
     inkscape:connector-curvature="0"
     sodipodi:nodetypes="ccccccc"
     inkscape:label="" />
  <path
     style="display:block;fill:#06f627;fill-opacity:1;fill-rule:evenodd;stroke:#000000;stroke-width:0.69135827px;stroke-linecap:butt;stroke-linejoin:miter;stroke-opacity:1"
     d="m 340.70024,365.92927 -7.4248,18.62286 -5.59903,-7.30308 -2.6778,3.16466 9.494,10.22432 12.65868,-24.58704 z"
     id="RightV7"
     inkscape:connector-curvature="0"
     sodipodi:nodetypes="ccccccc"
     inkscape:label="" />
  <path
     style="display:block;fill:#06f627;fill-opacity:1;fill-rule:evenodd;stroke:#000000;stroke-width:0.69135827px;stroke-linecap:butt;stroke-linejoin:miter;stroke-opacity:1"
     d="m 382.03112,446.10124 -7.4248,18.62286 -5.59903,-7.30308 -2.6778,3.16466 9.494,10.22432 12.65868,-24.58704 z"
     id="RightV6"
     inkscape:connector-curvature="0"
     sodipodi:nodetypes="ccccccc"
     inkscape:label="" />
  <path
     style="display:block;fill:#06f627;fill-opacity:1;fill-rule:evenodd;stroke:#000000;stroke-width:0.69135827px;stroke-linecap:butt;stroke-linejoin:miter;stroke-opacity:1"
     d="m 422.77861,185.78767 -7.4248,18.62286 -5.59903,-7.30308 -2.6778,3.16466 9.494,10.22432 12.65868,-24.58704 z"
     id="RightV5"
     inkscape:connector-curvature="0"
     sodipodi:nodetypes="ccccccc"
     inkscape:label="" />
  <path
     style="display:block;fill:#06f627;fill-opacity:1;fill-rule:evenodd;stroke:#000000;stroke-width:0.69135827px;stroke-linecap:butt;stroke-linejoin:miter;stroke-opacity:1"
     d="m 543.86894,423.19496 -7.4248,18.62286 -5.59903,-7.30308 -2.6778,3.16466 9.494,10.22432 12.65868,-24.58704 z"
     id="RightV4"
     inkscape:connector-curvature="0"
     sodipodi:nodetypes="ccccccc"
     inkscape:label="" />
  <path
     style="display:block;fill:#06f627;fill-opacity:1;fill-rule:evenodd;stroke:#000000;stroke-width:0.69135827px;stroke-linecap:butt;stroke-linejoin:miter;stroke-opacity:1"
     d="m 625.2077,262.26763 -7.4248,18.62286 -5.59903,-7.30308 -2.6778,3.16466 9.494,10.22432 12.65868,-24.58704 z"
     id="RightV3"
     inkscape:connector-curvature="0"
     sodipodi:nodetypes="ccccccc"
     inkscape:label="" />
  <path
     style="display:block;fill:#06f627;fill-opacity:1;fill-rule:evenodd;stroke:#000000;stroke-width:0.69135827px;stroke-linecap:butt;stroke-linejoin:miter;stroke-opacity:1"
     d="m 705.17341,343.69184 -7.4248,18.62286 -5.59903,-7.30308 -2.6778,3.16466 9.494,10.22432 12.65868,-24.58704 z"
     id="RightV2"
     inkscape:connector-curvature="0"
     sodipodi:nodetypes="ccccccc"
     inkscape:label="" />
  <path
     style="display:block;fill:#06f627;fill-opacity:1;fill-rule:evenodd;stroke:#000000;stroke-width:0.69135827px;stroke-linecap:butt;stroke-linejoin:miter;stroke-opacity:1"
     d="m 744.71637,143.1564 -7.4248,18.62286 -5.59903,-7.30308 -2.6778,3.16466 9.494,10.22432 12.65868,-24.58704 z"
     id="RightV1"
     inkscape:connector-curvature="0"
     sodipodi:nodetypes="ccccccc"
     inkscape:label="" />
</svg>
